<?xml version="1.0"?>
<svg xmlns="http://www.w3.org/2000/svg" xmlns:xlink="http://www.w3.org/1999/xlink" xmlns:svgjs="http://svgjs.com/svgjs" version="1.1" width="512" height="512" x="0" y="0" viewBox="0 0 512 512" style="enable-background:new 0 0 512 512" xml:space="preserve" class=""><g><g xmlns="http://www.w3.org/2000/svg"><g><path d="m480.966 129.534-46.766-46.766c-28.572-28.572-74.896-28.572-103.467 0l-189.699 189.698v190.316h120.316l219.616-219.616c15.069-15.068 23.534-35.505 23.534-56.815 0-21.311-8.465-41.748-23.534-56.817z" fill="#b4dfb2" data-original="#9ea2e3" style="" class=""/><path d="m157.5 325.65c0-21.311 8.465-41.748 23.534-56.816l167.8-167.8c15.069-15.069 35.506-23.534 56.816-23.534 9.854 0 19.513 1.832 28.549 5.268l-51.734-51.734c-15.068-15.069-35.505-23.534-56.815-23.534-21.31 0-41.747 8.465-56.816 23.534l-237.8 237.8c-15.069 15.069-23.534 35.506-23.534 56.816 0 21.31 8.465 41.747 23.534 56.815l98.5 98.5c15.068 15.068 35.506 23.534 56.816 23.534 21.31 0 41.747-8.465 56.816-23.534l18.184-18.184-80.316-80.316c-15.068-15.068-23.534-35.505-23.534-56.815z" fill="#9dd09a" data-original="#8288cb" style="" class=""/></g><g><g><g><ellipse cx="323.745" cy="75.745" fill="#ffdbe0" rx="23.377" ry="29.355" transform="matrix(.707 -.707 .707 .707 41.264 251.109)" data-original="#ffdbe0" style=""/></g><g><ellipse cx="436.255" cy="188.255" fill="#ffdbe0" rx="23.377" ry="29.355" transform="matrix(.707 -.707 .707 .707 -5.341 363.615)" data-original="#ffdbe0" style=""/></g></g></g><g><g><g><path d="m381.351 186.148-27.749-27.75h-35.069v67.344l21.86 21.86h41.484c7.977-7.973 12.842-19.059 12.616-31.28-.211-11.362-5.106-22.137-13.142-30.174z" fill="#efedff" data-original="#efedff" style="" class=""/><path d="m351.428 260.21c-11.423 0-22.378-4.538-30.456-12.615l-28.284-28.284v-16.255l25.843-9.588 42.641 42.641c5.737 5.737 12.926 9.686 20.703 11.494-7.793 7.79-18.557 12.607-30.447 12.607z" fill="#ffd4d4" data-original="#d4d4ff" style="" class=""/></g><g><path d="m353.601 158.399-28.284-28.284c-5.737-5.737-12.926-9.686-20.703-11.494h-15.197v74.847h29.115z" fill="#ff8e9e" data-original="#ff8e9e" style=""/><path d="m304.605 179.542c-8.077-8.077-12.615-19.033-12.615-30.456 0-11.898 4.825-22.67 12.624-30.465-3.173-.738-6.443-1.121-9.753-1.121-23.788 0-43.071 19.284-43.071 43.071 0 11.423 4.538 22.379 12.615 30.456l28.284 28.284 25.843-25.843z" fill="#ea5b70" data-original="#ea5b70" style="" class=""/></g></g><g><g><path d="m292.706 274.793-27.749-27.75h-35.069v67.344l21.86 21.86h41.484c7.977-7.973 12.842-19.059 12.616-31.28-.21-11.362-5.106-22.137-13.142-30.174z" fill="#efedff" data-original="#efedff" style="" class=""/><path d="m262.784 348.855c-11.423 0-22.378-4.538-30.456-12.615l-28.284-28.284v-16.255l25.843-9.588 42.641 42.641c5.737 5.737 12.926 9.686 20.703 11.494-7.794 7.79-18.558 12.607-30.447 12.607z" fill="#ffd4d4" data-original="#d4d4ff" style="" class=""/></g><g><path d="m264.956 247.044-28.284-28.284c-5.737-5.737-12.926-9.686-20.703-11.494h-15.197v74.847h29.115z" fill="#ff8e9e" data-original="#ff8e9e" style=""/><path d="m215.96 268.187c-8.077-8.077-12.615-19.033-12.615-30.456 0-11.898 4.825-22.67 12.624-30.465-3.173-.738-6.443-1.121-9.753-1.121-23.788 0-43.071 19.284-43.071 43.071 0 11.423 4.538 22.379 12.615 30.456l28.284 28.284 25.843-25.843z" fill="#ea5b70" data-original="#ea5b70" style="" class=""/></g></g><g><g><path d="m204.061 363.438-27.749-27.75h-35.069v67.344l21.86 21.86h41.484c7.977-7.973 12.842-19.059 12.616-31.28-.21-11.362-5.106-22.137-13.142-30.174z" fill="#efedff" data-original="#efedff" style="" class=""/><path d="m174.139 437.5c-11.423 0-22.378-4.538-30.456-12.615l-28.284-28.284v-16.255l25.843-9.588 42.641 42.641c5.737 5.737 12.926 9.686 20.703 11.494-7.794 7.79-18.558 12.607-30.447 12.607z" fill="#ffd4d4" data-original="#d4d4ff" style="" class=""/></g><g><path d="m176.311 335.689-28.284-28.284c-5.737-5.737-12.926-9.686-20.703-11.494h-15.197v74.847h29.115z" fill="#ff8e9e" data-original="#ff8e9e" style=""/><path d="m127.315 356.832c-8.077-8.077-12.615-19.033-12.615-30.456 0-11.898 4.825-22.67 12.624-30.465-3.173-.738-6.443-1.121-9.753-1.121-23.788 0-43.071 19.284-43.071 43.071 0 11.423 4.538 22.379 12.615 30.456l28.284 28.284 25.843-25.843z" fill="#ea5b70" data-original="#ea5b70" style="" class=""/></g></g></g><g><path d="m353.058 81.233 8.485-8.485c2.929-2.93 2.929-7.678 0-10.607-2.93-2.928-7.678-2.928-10.607 0l-8.485 8.485c-2.929 2.93-2.929 7.678 0 10.607 2.93 2.929 7.677 2.928 10.607 0z" fill="#000000" data-original="#000000" style="" class=""/><path d="m441.374 169.55 8.485-8.485c2.929-2.93 2.929-7.678 0-10.607-2.93-2.928-7.678-2.928-10.607 0l-8.485 8.485c-2.929 2.93-2.929 7.678 0 10.607 2.93 2.929 7.677 2.928 10.607 0z" fill="#000000" data-original="#000000" style="" class=""/><path d="m381.036 100.711c-4.135-.283-7.713 2.837-7.996 6.969-1.216 17.732 13.473 32.493 31.28 31.28 4.132-.283 7.252-3.863 6.969-7.996s-3.865-7.253-7.996-6.969c-8.699.591-15.884-6.602-15.288-15.288.283-4.133-2.837-7.713-6.969-7.996z" fill="#000000" data-original="#000000" style="" class=""/><path d="m486.27 124.23-98.5-98.501c-16.593-16.591-38.654-25.729-62.12-25.729s-45.527 9.138-62.119 25.729l-194.086 194.087c-2.929 2.93-2.929 7.678 0 10.607 2.929 2.928 7.678 2.928 10.606 0l194.086-194.086c13.759-13.76 32.054-21.337 51.513-21.337s37.753 7.577 51.512 21.337l98.501 98.501c13.759 13.759 21.337 32.053 21.337 51.512 0 19.46-7.578 37.754-21.338 51.513l-237.799 237.8c-13.759 13.759-32.053 21.337-51.513 21.337-19.459 0-37.753-7.577-51.512-21.337l-98.5-98.501c-13.76-13.759-21.338-32.053-21.338-51.512s7.578-37.754 21.337-51.513l22.501-22.501c2.929-2.93 2.929-7.678 0-10.607-2.929-2.928-7.678-2.928-10.606 0l-22.502 22.501c-16.592 16.593-25.73 38.655-25.73 62.12s9.138 45.526 25.731 62.119l98.5 98.501c16.592 16.592 38.653 25.73 62.119 25.73s45.527-9.138 62.12-25.731l237.799-237.799c16.593-16.592 25.731-38.654 25.731-62.12s-9.138-45.528-25.73-62.12z" fill="#000000" data-original="#000000" style="" class=""/><path d="m313.94 113.74c-18.69-7.612-41.365-3.647-55.87 12.079-17.901 19.328-19.188 50.355 1.03 70.511l56.57 56.569c19.783 19.786 51.816 19.701 71.51.011 19.605-19.645 20.073-51.542-.53-72.061-1.409-1.42-3.3-2.2-5.3-2.2s-3.89.78-5.3 2.2c-2.93 2.92-2.93 7.67 0 10.601 14.971 15.012 14.064 37.307.52 50.85-14.03 14.01-36.526 13.753-50.29-.01-11.358-11.352-18.051-18.043-22.986-22.977l50.305-50.304c.416.416.818.818 1.241 1.241 1.42 1.41 3.3 2.189 5.31 2.189 2 0 3.881-.779 5.301-2.189 2.92-2.931 2.92-7.69 0-10.61 0 0-.011 0-.011-.01-13.59-13.6-23.609-23.61-34.819-34.82-4.801-4.79-10.411-8.52-16.681-11.07zm29.051 44.661-50.305 50.305-22.976-22.986c-14.575-14.64-12.983-36.446-.65-49.689 13.909-14.883 37.217-14.353 50.96-.61 13.677 13.689 7.788 7.798 22.971 22.98z" fill="#000000" data-original="#000000" style="" class=""/><path d="m206.216 198.645c-27.885 0-50.571 22.687-50.571 50.572 0 13.509 5.26 26.209 14.812 35.759l56.567 56.568c19.71 19.708 51.786 19.719 71.509.009 19.353-19.345 20.336-51.202-.524-72.063l-56.033-56.033c-9.415-9.414-22.449-14.812-35.76-14.812zm81.186 81.452c14.795 14.794 14.234 37.146.527 50.847-13.869 13.861-36.432 13.859-50.298-.007l-22.98-22.98 50.306-50.306zm-83.358 17.252-22.981-22.981c-6.718-6.717-10.418-15.649-10.418-25.151 0-19.614 15.957-35.572 35.571-35.572 9.363 0 18.531 3.798 25.153 10.419l22.98 22.98z" fill="#000000" data-original="#000000" style="" class=""/><path d="m67 337.861c0 13.508 5.26 26.208 14.812 35.759l56.568 56.568c19.719 19.717 51.797 19.71 71.508.01 19.349-19.338 20.341-51.198-.524-72.063l-56.034-56.033.001.001c-9.413-9.414-22.446-14.812-35.76-14.812-27.885-.001-50.571 22.686-50.571 50.57zm131.757 30.881c14.795 14.794 14.234 37.146.527 50.847-13.869 13.862-36.433 13.858-50.298-.008l-22.98-22.98c11.603-11.603 38.694-38.695 50.305-50.305zm-56.032-56.033 22.98 22.98c-11.612 11.611-38.702 38.702-50.306 50.305l-22.981-22.98c-6.718-6.718-10.418-15.651-10.418-25.153 0-19.614 15.957-35.571 35.571-35.571 9.365 0 18.533 3.797 25.154 10.419-.001 0-.001 0 0 0z" fill="#000000" data-original="#000000" style="" class=""/></g></g></g></svg>
